<svg width="135" height="183" viewBox="0 0 135 183" fill="none" xmlns="http://www.w3.org/2000/svg">
<g opacity="0.8" clip-path="url(#clip0_2234_9590)">
<path d="M41.1175 176.9C42.5896 176.889 43.7021 177.988 43.7133 179.465C43.7245 180.942 42.6289 182.058 41.1567 182.069C39.6846 182.08 38.5722 180.981 38.5609 179.504C38.5497 178.027 39.7681 176.91 41.1175 176.9Z" fill="#FFCF2D"/>
<path d="M40.9505 154.868C42.4226 154.856 43.5351 155.956 43.5463 157.433C43.5575 158.91 42.4619 160.026 40.9898 160.037C39.5177 160.048 38.4052 158.949 38.394 157.472C38.3837 156.118 39.6011 154.878 40.9505 154.868Z" fill="#FFCF2D"/>
<path d="M40.784 132.959C42.2561 132.948 43.3686 134.048 43.3798 135.525C43.391 137.002 42.2954 138.118 40.8233 138.129C39.3511 138.14 38.2387 137.041 38.2274 135.564C38.2162 134.087 39.4346 132.97 40.784 132.959Z" fill="#FFCF2D"/>
<path d="M40.617 110.927C42.0891 110.916 43.2016 112.015 43.2128 113.492C43.224 114.969 42.1284 116.085 40.6563 116.097C39.1842 116.108 38.0717 115.008 38.0605 113.531C38.0492 112.054 39.2676 110.937 40.617 110.927Z" fill="#FFCF2D"/>
<path d="M40.4495 88.8949C41.9216 88.8838 43.0341 89.9831 43.0453 91.4601C43.0566 92.9371 41.9609 94.0533 40.4888 94.0644C39.0167 94.0756 37.9042 92.9762 37.893 91.4992C37.8827 90.1453 39.1001 88.9052 40.4495 88.8949Z" fill="#FFCF2D"/>
<path d="M40.2821 66.8627C41.7542 66.8515 42.8667 67.9509 42.8779 69.4279C42.8891 70.9049 41.7934 72.021 40.3213 72.0322C38.8492 72.0434 37.7367 70.944 37.7255 69.467C37.7143 67.99 38.9326 66.873 40.2821 66.8627Z" fill="#FFCF2D"/>
<path d="M40.116 44.9545C41.5881 44.9433 42.7006 46.0427 42.7119 47.5197C42.7231 48.9967 41.6274 50.1128 40.1553 50.124C38.6832 50.1352 37.5707 49.0358 37.5595 47.5588C37.5483 46.0818 38.7666 44.9647 40.116 44.9545Z" fill="#FFCF2D"/>
<path d="M39.9486 22.9223C41.4207 22.9111 42.5332 24.0105 42.5444 25.4875C42.5556 26.9645 41.4599 28.0806 39.9878 28.0918C38.5157 28.1029 37.4032 27.0036 37.392 25.5266C37.3808 24.0496 38.5991 22.9325 39.9486 22.9223Z" fill="#FFCF2D"/>
<path d="M39.7816 0.891052C41.2537 0.879876 42.3662 1.97923 42.3774 3.45622C42.3886 4.93321 41.2929 6.04934 39.8208 6.06052C38.3487 6.0717 37.2362 4.97233 37.225 3.49533C37.2147 2.14143 38.4321 0.901297 39.7816 0.891052Z" fill="#FFCF2D"/>
<path d="M59.3963 176.761C60.8684 176.75 61.9809 177.849 61.9921 179.326C62.0033 180.803 60.9077 181.919 59.4356 181.931C57.9635 181.942 56.851 180.842 56.8398 179.365C56.8285 177.888 57.9242 176.772 59.3963 176.761Z" fill="#FFCF2D"/>
<path d="M59.2288 154.729C60.7009 154.718 61.8134 155.817 61.8246 157.294C61.8359 158.771 60.7402 159.887 59.2681 159.898C57.796 159.91 56.6835 158.81 56.6723 157.333C56.662 155.979 57.7567 154.74 59.2288 154.729Z" fill="#FFCF2D"/>
<path d="M59.0623 132.821C60.5344 132.81 61.6469 133.909 61.6581 135.386C61.6694 136.863 60.5737 137.979 59.1016 137.99C57.6295 138.001 56.517 136.902 56.5058 135.425C56.4946 133.948 57.5902 132.832 59.0623 132.821Z" fill="#FFCF2D"/>
<path d="M58.8953 110.788C60.3674 110.777 61.4799 111.877 61.4912 113.354C61.5024 114.831 60.4067 115.947 58.9346 115.958C57.4625 115.969 56.35 114.87 56.3388 113.393C56.3276 111.916 57.4232 110.8 58.8953 110.788Z" fill="#FFCF2D"/>
<path d="M58.7279 88.7563C60.2 88.7451 61.3125 89.8445 61.3237 91.3215C61.3349 92.7984 60.2392 93.9146 58.7671 93.9258C57.295 93.9369 56.1825 92.8376 56.1713 91.3606C56.161 90.0067 57.2558 88.7674 58.7279 88.7563Z" fill="#FFCF2D"/>
<path d="M58.5609 66.724C60.033 66.7129 61.1455 67.8122 61.1567 69.2892C61.1679 70.7662 60.0722 71.8824 58.6001 71.8935C57.128 71.9047 56.0155 70.8053 56.0043 69.3283C55.9931 67.8513 57.0888 66.7352 58.5609 66.724Z" fill="#FFCF2D"/>
<path d="M58.3944 44.8158C59.8665 44.8047 60.979 45.904 60.9902 47.381C61.0014 48.858 59.9057 49.9741 58.4336 49.9853C56.9615 49.9965 55.849 48.8971 55.8378 47.4201C55.8266 45.9431 56.9223 44.827 58.3944 44.8158Z" fill="#FFCF2D"/>
<path d="M58.2274 22.7836C59.6995 22.7724 60.812 23.8718 60.8232 25.3488C60.8344 26.8258 59.7387 27.9419 58.2666 27.9531C56.7945 27.9643 55.682 26.8649 55.6708 25.3879C55.6596 23.9109 56.7553 22.7948 58.2274 22.7836Z" fill="#FFCF2D"/>
<path d="M58.0599 0.752365C59.532 0.741189 60.6445 1.84054 60.6557 3.31754C60.6669 4.79454 59.5712 5.91067 58.0991 5.92185C56.627 5.93302 55.5145 4.83365 55.5033 3.35666C55.493 2.00274 56.5878 0.763541 58.0599 0.752365Z" fill="#FFCF2D"/>
<path d="M4.68294 177.176C6.15504 177.165 7.26753 178.264 7.27875 179.741C7.28996 181.218 6.19429 182.335 4.72218 182.346C3.25008 182.357 2.13759 181.257 2.12637 179.78C2.11516 178.303 3.21083 177.187 4.68294 177.176Z" fill="#FFCF2D"/>
<path d="M4.51546 155.144C5.98756 155.133 7.10005 156.232 7.11127 157.709C7.12248 159.186 6.02681 160.302 4.5547 160.313C3.0826 160.325 1.97011 159.225 1.95889 157.748C1.94861 156.394 3.04335 155.155 4.51546 155.144Z" fill="#FFCF2D"/>
<path d="M4.34944 133.236C5.82155 133.225 6.93404 134.324 6.94525 135.801C6.95646 137.278 5.86079 138.394 4.38869 138.405C2.91658 138.416 1.80316 137.194 1.79288 135.84C1.78166 134.363 2.87733 133.247 4.34944 133.236Z" fill="#FFCF2D"/>
<path d="M4.18196 111.204C5.65407 111.192 6.76656 112.292 6.77777 113.769C6.78898 115.246 5.69331 116.362 4.22121 116.373C2.7491 116.384 1.63568 115.162 1.6254 113.808C1.61512 112.454 2.70985 111.215 4.18196 111.204Z" fill="#FFCF2D"/>
<path d="M4.01497 89.1713C5.48707 89.1601 6.59956 90.2595 6.61078 91.7365C6.62199 93.2135 5.52632 94.3296 4.05421 94.3408C2.58211 94.352 1.46962 93.2526 1.4584 91.7756C1.44813 90.4217 2.54286 89.1825 4.01497 89.1713Z" fill="#FFCF2D"/>
<path d="M3.84749 67.1401C5.31959 67.1289 6.43208 68.2282 6.4433 69.7052C6.45451 71.1822 5.35884 72.2984 3.88673 72.3095C2.41463 72.3207 1.30214 71.2214 1.29092 69.7444C1.27971 68.2674 2.37538 67.1512 3.84749 67.1401Z" fill="#FFCF2D"/>
<path d="M3.68147 45.2309C5.15358 45.2197 6.26607 46.3191 6.27728 47.7961C6.28849 49.2731 5.19282 50.3892 3.72072 50.4004C2.24861 50.4115 1.13612 49.3122 1.12491 47.8352C1.1137 46.3582 2.20936 45.2421 3.68147 45.2309Z" fill="#FFCF2D"/>
<path d="M3.51399 23.1996C4.9861 23.1884 6.09859 24.2878 6.1098 25.7648C6.12101 27.2418 5.02534 28.3579 3.55324 28.3691C2.08113 28.3803 0.968641 27.2809 0.957428 25.8039C0.946215 24.3269 2.04188 23.2108 3.51399 23.1996Z" fill="#FFCF2D"/>
<path d="M3.34651 1.16742C4.81862 1.15624 5.93111 2.25559 5.94232 3.73259C5.95353 5.20958 4.85786 6.32571 3.38576 6.33689C1.91365 6.34806 0.80116 5.24869 0.789947 3.7717C0.779669 2.41779 1.8744 1.1786 3.34651 1.16742Z" fill="#FFCF2D"/>
<path d="M22.9617 177.038C24.4339 177.026 25.5463 178.126 25.5576 179.603C25.5688 181.08 24.3504 182.197 23.001 182.207C21.5289 182.218 20.4164 181.119 20.4052 179.642C20.394 178.165 21.4896 177.049 22.9617 177.038Z" fill="#FFCF2D"/>
<path d="M22.7943 155.005C24.2664 154.994 25.3789 156.093 25.3901 157.57C25.4013 159.047 24.3056 160.164 22.8335 160.175C21.3614 160.186 20.2489 159.087 20.2377 157.61C20.2274 156.256 21.3222 155.016 22.7943 155.005Z" fill="#FFCF2D"/>
<path d="M22.6282 133.097C24.1004 133.086 25.2128 134.185 25.2241 135.662C25.2353 137.139 24.1396 138.255 22.6675 138.267C21.1954 138.278 20.0829 137.178 20.0717 135.701C20.0605 134.224 21.1561 133.108 22.6282 133.097Z" fill="#FFCF2D"/>
<path d="M22.4608 111.065C23.9329 111.054 25.0454 112.153 25.0566 113.63C25.0678 115.107 23.9721 116.223 22.5 116.234C21.0279 116.246 19.9154 115.146 19.9042 113.669C19.893 112.192 20.9887 111.076 22.4608 111.065Z" fill="#FFCF2D"/>
<path d="M22.2938 89.0326C23.7659 89.0215 24.8784 90.1208 24.8896 91.5978C24.9008 93.0748 23.8051 94.1909 22.333 94.2021C20.8609 94.2133 19.7484 93.1139 19.7372 91.6369C19.7269 90.283 20.8217 89.0438 22.2938 89.0326Z" fill="#FFCF2D"/>
<path d="M22.1263 67.0014C23.5984 66.9902 24.7109 68.0896 24.7221 69.5666C24.7333 71.0436 23.6376 72.1597 22.1655 72.1709C20.6934 72.182 19.5809 71.0827 19.5697 69.6057C19.5585 68.1287 20.6542 67.0126 22.1263 67.0014Z" fill="#FFCF2D"/>
<path d="M21.9598 45.0922C23.4319 45.081 24.5444 46.1804 24.5556 47.6574C24.5668 49.1344 23.4711 50.2505 21.999 50.2617C20.5269 50.2729 19.4144 49.1735 19.4032 47.6965C19.392 46.2195 20.4877 45.1034 21.9598 45.0922Z" fill="#FFCF2D"/>
<path d="M21.7928 23.0609C23.2649 23.0498 24.3774 24.1491 24.3886 25.6261C24.3998 27.1031 23.3042 28.2193 21.832 28.2304C20.3599 28.2416 19.2474 27.1423 19.2362 25.6653C19.225 24.1883 20.3207 23.0721 21.7928 23.0609Z" fill="#FFCF2D"/>
<path d="M21.6253 1.02873C23.0974 1.01756 24.2099 2.11691 24.2211 3.59391C24.2323 5.0709 23.1367 6.18704 21.6646 6.19822C20.1925 6.20939 19.08 5.11002 19.0688 3.63302C19.0585 2.27911 20.1532 1.03991 21.6253 1.02873Z" fill="#FFCF2D"/>
<path d="M77.5521 176.623C79.0242 176.612 80.1367 177.712 80.1479 179.189C80.1591 180.666 79.0634 181.782 77.5913 181.793C76.1192 181.804 75.0067 180.705 74.9955 179.228C74.9843 177.751 76.2026 176.634 77.5521 176.623Z" fill="#FFCF2D"/>
<path d="M77.3851 154.591C78.8572 154.58 79.9697 155.679 79.9809 157.156C79.9921 158.633 78.8964 159.75 77.4243 159.761C75.9522 159.772 74.8397 158.673 74.8285 157.196C74.8182 155.842 76.0357 154.601 77.3851 154.591Z" fill="#FFCF2D"/>
<path d="M77.2186 132.682C78.6907 132.671 79.8032 133.77 79.8144 135.247C79.8256 136.724 78.7299 137.84 77.2578 137.852C75.7857 137.863 74.6732 136.763 74.662 135.286C74.6508 133.809 75.8691 132.692 77.2186 132.682Z" fill="#FFCF2D"/>
<path d="M77.0516 110.651C78.5237 110.64 79.6362 111.739 79.6474 113.216C79.6586 114.693 78.5629 115.809 77.0908 115.82C75.6187 115.831 74.5062 114.732 74.495 113.255C74.4838 111.778 75.7022 110.661 77.0516 110.651Z" fill="#FFCF2D"/>
<path d="M76.8841 88.6186C78.3562 88.6074 79.4687 89.7068 79.4799 91.1838C79.4911 92.6608 78.3955 93.7769 76.9234 93.7881C75.4512 93.7992 74.3388 92.6999 74.3275 91.2229C74.3173 89.869 75.5347 88.6288 76.8841 88.6186Z" fill="#FFCF2D"/>
<path d="M76.7171 66.5863C78.1892 66.5752 79.3017 67.6745 79.3129 69.1515C79.3241 70.6285 78.2285 71.7447 76.7564 71.7558C75.2843 71.767 74.1718 70.6676 74.1606 69.1906C74.1493 67.7137 75.3677 66.5966 76.7171 66.5863Z" fill="#FFCF2D"/>
<path d="M76.5506 44.6781C78.0227 44.667 79.1352 45.7663 79.1464 47.2433C79.1576 48.7203 78.062 49.8365 76.5899 49.8476C75.1178 49.8588 74.0053 48.7594 73.994 47.2824C73.9828 45.8054 75.2012 44.6884 76.5506 44.6781Z" fill="#FFCF2D"/>
<path d="M76.3831 22.6459C77.8552 22.6347 78.9677 23.7341 78.9789 25.2111C78.9902 26.6881 77.8945 27.8042 76.4224 27.8154C74.9503 27.8266 73.8378 26.7272 73.8266 25.2502C73.8154 23.7732 75.0337 22.6561 76.3831 22.6459Z" fill="#FFCF2D"/>
<path d="M76.2161 0.613693C77.6882 0.602517 78.8007 1.70187 78.8119 3.17887C78.8232 4.65586 77.7275 5.772 76.2554 5.78318C74.7833 5.79435 73.6708 4.69498 73.6596 3.21798C73.6493 1.86407 74.8667 0.623938 76.2161 0.613693Z" fill="#FFCF2D"/>
<path d="M95.8309 176.484C97.303 176.473 98.4155 177.572 98.4267 179.049C98.4379 180.526 97.3422 181.642 95.8701 181.653C94.398 181.664 93.2855 180.565 93.2743 179.088C93.2631 177.611 94.3588 176.495 95.8309 176.484Z" fill="#FFCF2D"/>
<path d="M95.6634 154.453C97.1355 154.441 98.248 155.541 98.2592 157.018C98.2704 158.495 97.1748 159.611 95.7026 159.622C94.2305 159.633 93.1181 158.534 93.1068 157.057C93.0966 155.703 94.1913 154.464 95.6634 154.453Z" fill="#FFCF2D"/>
<path d="M95.4974 132.543C96.9695 132.532 98.082 133.632 98.0932 135.109C98.1044 136.586 97.0087 137.702 95.5366 137.713C94.0645 137.724 92.952 136.625 92.9408 135.148C92.9296 133.671 94.0253 132.555 95.4974 132.543Z" fill="#FFCF2D"/>
<path d="M97.9257 113.077C97.9149 111.65 96.7527 110.501 95.3299 110.512C93.9071 110.523 92.7625 111.689 92.7733 113.116C92.7842 114.544 93.9464 115.692 95.3692 115.682C96.7919 115.671 97.9365 114.505 97.9257 113.077Z" fill="#FFCF2D"/>
<path d="M95.1629 88.4799C96.635 88.4687 97.7475 89.5681 97.7587 91.0451C97.7699 92.5221 96.6743 93.6382 95.2022 93.6494C93.7301 93.6606 92.6176 92.5612 92.6064 91.0842C92.5961 89.7303 93.6908 88.4911 95.1629 88.4799Z" fill="#FFCF2D"/>
<path d="M94.9954 66.4477C96.4675 66.4365 97.58 67.5359 97.5912 69.0129C97.6024 70.4899 96.5068 71.606 95.0347 71.6172C93.5626 71.6283 92.4501 70.529 92.4389 69.052C92.4277 67.575 93.5233 66.4588 94.9954 66.4477Z" fill="#FFCF2D"/>
<path d="M94.8289 44.5395C96.301 44.5283 97.4135 45.6276 97.4247 47.1046C97.4359 48.5816 96.3403 49.6978 94.8682 49.709C93.3961 49.7201 92.2836 48.6208 92.2724 47.1438C92.2612 45.6668 93.3568 44.5506 94.8289 44.5395Z" fill="#FFCF2D"/>
<path d="M97.2577 25.0724C97.2469 23.6449 96.0847 22.4964 94.6619 22.5072C93.2391 22.518 92.0945 23.684 92.1054 25.1115C92.1162 26.5391 93.2784 27.6875 94.7012 27.6767C96.124 27.6659 97.2686 26.4999 97.2577 25.0724Z" fill="#FFCF2D"/>
<path d="M94.4945 0.475022C95.9666 0.463846 97.079 1.5632 97.0903 3.0402C97.1015 4.51719 96.0058 5.63333 94.5337 5.6445C93.0616 5.65568 91.9491 4.55631 91.9379 3.07931C91.9276 1.7254 93.0224 0.486198 94.4945 0.475022Z" fill="#FFCF2D"/>
<path d="M114.11 176.345C115.582 176.334 116.694 177.433 116.706 178.91C116.717 180.387 115.621 181.503 114.149 181.515C112.677 181.526 111.564 180.426 111.553 178.949C111.542 177.472 112.638 176.356 114.11 176.345Z" fill="#FFCF2D"/>
<path d="M113.942 154.314C115.414 154.303 116.527 155.402 116.538 156.879C116.549 158.356 115.454 159.472 113.981 159.483C112.509 159.495 111.397 158.395 111.386 156.918C111.375 155.564 112.47 154.325 113.942 154.314Z" fill="#FFCF2D"/>
<path d="M113.776 132.405C115.248 132.394 116.361 133.493 116.372 134.97C116.383 136.447 115.288 137.563 113.815 137.574C112.343 137.585 111.231 136.486 111.22 135.009C111.208 133.532 112.304 132.416 113.776 132.405Z" fill="#FFCF2D"/>
<path d="M113.609 110.373C115.081 110.362 116.193 111.462 116.205 112.939C116.216 114.416 115.12 115.532 113.648 115.543C112.176 115.554 111.063 114.455 111.052 112.978C111.041 111.501 112.137 110.385 113.609 110.373Z" fill="#FFCF2D"/>
<path d="M113.441 88.3412C114.913 88.33 116.026 89.4294 116.037 90.9064C116.048 92.3834 114.953 93.4995 113.48 93.5107C112.008 93.5219 110.896 92.4225 110.885 90.9455C110.874 89.5916 111.969 88.3524 113.441 88.3412Z" fill="#FFCF2D"/>
<path d="M113.274 66.309C114.746 66.2978 115.859 67.3972 115.87 68.8742C115.881 70.3512 114.786 71.4673 113.314 71.4785C111.841 71.4897 110.729 70.3903 110.718 68.9133C110.706 67.4363 111.802 66.3202 113.274 66.309Z" fill="#FFCF2D"/>
<path d="M113.108 44.4008C114.58 44.3896 115.692 45.489 115.704 46.966C115.715 48.443 114.619 49.5591 113.147 49.5703C111.675 49.5815 110.562 48.4821 110.551 47.0051C110.54 45.5281 111.636 44.412 113.108 44.4008Z" fill="#FFCF2D"/>
<path d="M112.941 22.3686C114.413 22.3574 115.525 23.4568 115.537 24.9338C115.548 26.4108 114.452 27.5269 112.98 27.5381C111.508 27.5492 110.395 26.4499 110.384 24.9729C110.373 23.4959 111.469 22.3797 112.941 22.3686Z" fill="#FFCF2D"/>
<path d="M112.773 0.33635C114.245 0.325174 115.358 1.42453 115.369 2.90152C115.38 4.37852 114.285 5.49466 112.813 5.50583C111.34 5.51701 110.228 4.41764 110.217 2.94064C110.206 1.58673 111.301 0.347526 112.773 0.33635Z" fill="#FFCF2D"/>
<path d="M132.265 176.207C133.738 176.196 134.85 177.296 134.861 178.773C134.872 180.25 133.777 181.366 132.305 181.377C130.833 181.388 129.72 180.289 129.709 178.812C129.698 177.335 130.916 176.218 132.265 176.207Z" fill="#FFCF2D"/>
<path d="M132.098 154.175C133.571 154.164 134.683 155.263 134.694 156.74C134.705 158.217 133.61 159.334 132.138 159.345C130.666 159.356 129.553 158.257 129.542 156.78C129.532 155.426 130.749 154.185 132.098 154.175Z" fill="#FFCF2D"/>
<path d="M131.932 132.267C133.404 132.256 134.517 133.355 134.528 134.832C134.539 136.309 133.443 137.425 131.971 137.436C130.499 137.448 129.387 136.348 129.375 134.871C129.364 133.394 130.583 132.277 131.932 132.267Z" fill="#FFCF2D"/>
<path d="M131.764 110.235C133.237 110.224 134.349 111.323 134.36 112.8C134.371 114.277 133.276 115.393 131.804 115.404C130.332 115.415 129.219 114.316 129.208 112.839C129.197 111.362 130.415 110.245 131.764 110.235Z" fill="#FFCF2D"/>
<path d="M131.597 88.2035C133.07 88.1924 134.182 89.2917 134.193 90.7687C134.205 92.2457 133.109 93.3618 131.637 93.373C130.165 93.3842 129.052 92.2848 129.041 90.8078C129.031 89.4539 130.248 88.2138 131.597 88.2035Z" fill="#FFCF2D"/>
<path d="M131.43 66.1713C132.902 66.1601 134.015 67.2595 134.026 68.7365C134.037 70.2135 132.941 71.3296 131.469 71.3408C129.997 71.352 128.885 70.2526 128.873 68.7756C128.862 67.2986 130.081 66.1816 131.43 66.1713Z" fill="#FFCF2D"/>
<path d="M131.264 44.2631C132.736 44.2519 133.849 45.3513 133.86 46.8283C133.871 48.3053 132.775 49.4214 131.303 49.4326C129.831 49.4438 128.719 48.3444 128.707 46.8674C128.696 45.3904 129.915 44.2733 131.264 44.2631Z" fill="#FFCF2D"/>
<path d="M131.097 22.2309C132.569 22.2197 133.681 23.3191 133.692 24.7961C133.704 26.2731 132.608 27.3892 131.136 27.4004C129.664 27.4115 128.551 26.3122 128.54 24.8352C128.529 23.3582 129.747 22.2411 131.097 22.2309Z" fill="#FFCF2D"/>
<path d="M130.929 0.198654C132.401 0.187478 133.514 1.28683 133.525 2.76383C133.536 4.24082 132.44 5.35696 130.968 5.36814C129.496 5.37931 128.384 4.27994 128.372 2.80294C128.362 1.44903 129.58 0.208899 130.929 0.198654Z" fill="#FFCF2D"/>
</g>
<defs>
<clipPath id="clip0_2234_9590">
<rect width="181.184" height="132.739" fill="white" transform="translate(2.146 182.365) rotate(-90.435)"/>
</clipPath>
</defs>
</svg>
